<svg xmlns="http://www.w3.org/2000/svg" xmlns:xlink="http://www.w3.org/1999/xlink" id="Layer_1" x="0" y="0" enable-background="new 0 0 41 41" version="1.1" viewBox="0 0 41 41" xml:space="preserve"><g><path fill="#FFF" fill-rule="evenodd" d="M20.5,0C31.822,0,41,9.178,41,20.5S31.822,41,20.5,41 S0,31.822,0,20.5S9.178,0,20.5,0z" clip-rule="evenodd"/><path fill="#555760" fill-rule="evenodd" d="M20.5,12c4.694,0,8.5,3.806,8.5,8.5S25.194,29,20.5,29 S12,25.194,12,20.5S15.806,12,20.5,12z" clip-rule="evenodd"/><path fill="#FFF" fill-rule="evenodd" d="M20.5,12.625c4.349,0,7.875,3.526,7.875,7.875 s-3.526,7.875-7.875,7.875s-7.875-3.526-7.875-7.875S16.151,12.625,20.5,12.625z" clip-rule="evenodd"/><path fill="#555760" fill-rule="evenodd" d="M20.5,16c2.485,0,4.5,2.015,4.5,4.5S22.985,25,20.5,25 S16,22.985,16,20.5S18.015,16,20.5,16z" clip-rule="evenodd"/></g></svg>